<svg width="614" height="636" viewBox="0 0 614 636" fill="none" xmlns="http://www.w3.org/2000/svg">
<path fill-rule="evenodd" clip-rule="evenodd" d="M357.307 0.00402853C421.912 0.501819 481.686 36.0348 528.232 80.8394C570.686 121.704 589.429 178.942 602.815 236.327C615.17 289.289 619.14 343.995 601.628 395.482C584.286 446.474 544.48 483.088 506.053 520.829C460.276 565.789 421.413 632.723 357.307 635.442C293.121 638.164 250.886 571.871 199.104 533.847C147.667 496.076 87.6059 469.393 55.8214 414.056C19.0192 349.984 -17.3951 271.938 9.0324 202.936C35.3394 134.249 120.907 115.22 184.458 78.1906C240.467 45.5554 292.486 -0.495433 357.307 0.00402853Z" fill="#44210F" fill-opacity="0.8"/>
</svg>
