<svg width="590" height="622" viewBox="0 0 590 622" fill="none" xmlns="http://www.w3.org/2000/svg">
<path fill-rule="evenodd" clip-rule="evenodd" d="M316.952 3.15876C389.252 -0.323032 471.306 -9.79217 525.96 37.6674C579.893 84.5007 579.554 166.57 586.95 237.615C592.95 295.259 590.019 353.781 564.269 405.701C540.892 452.837 493.772 479.208 451.557 510.611C408.758 542.449 368.286 575.182 316.952 589.68C249.614 608.698 173.598 640.987 112.847 606.27C51.6807 571.315 40.6945 489.099 22.0603 421.159C4.29246 356.378 -9.50717 289.826 8.2883 225.052C26.6507 158.215 65.794 97.5766 122.074 57.1175C178.176 16.7867 247.938 6.4823 316.952 3.15876Z" fill="#44210F" fill-opacity="0.8"/>
</svg>
