<svg width="535" height="648" viewBox="0 0 535 648" fill="none" xmlns="http://www.w3.org/2000/svg">
<path fill-rule="evenodd" clip-rule="evenodd" d="M245.53 2.21478C314.325 -12.2732 378.796 47.1691 427.89 97.4924C471.63 142.329 483.777 205.227 502.035 265.145C519.898 323.767 541.41 381.156 532.816 441.834C522.957 511.453 514.569 601.796 450.314 630.35C383.607 659.994 318.512 567.965 245.53 569.499C169.585 571.096 99.0437 678.976 34.3941 639.092C-28.3173 600.405 14.658 498.322 10.8702 424.734C8.21736 373.196 -3.0095 321.915 15.5901 273.777C33.5376 227.326 79.3908 202.112 111.57 164.108C157.968 109.312 175.271 17.0112 245.53 2.21478Z" fill="#44210F" fill-opacity="0.8"/>
</svg>
