<svg width="659" height="529" viewBox="0 0 659 529" fill="none" xmlns="http://www.w3.org/2000/svg">
<path fill-rule="evenodd" clip-rule="evenodd" d="M316.272 2.10032C365.726 6.11235 408.703 26.9244 455.366 43.7844C524.906 68.9098 634.383 54.138 656 124.847C677.768 196.05 560.477 236.316 535.692 306.525C512.033 373.543 573.656 468.781 518.682 513.825C464.692 558.062 385.916 490.952 316.272 486.309C253.635 482.134 186.18 520.735 132.562 488.086C78.2434 455.011 68.7423 382.501 47.4027 322.592C25.3517 260.686 -16.1994 196.245 6.66174 134.633C29.4097 73.3263 99.6388 45.5351 159.754 19.8023C209.233 -1.3782 262.626 -2.25184 316.272 2.10032Z" fill="#44210F" fill-opacity="0.8"/>
</svg>
