<svg width="631" height="633" viewBox="0 0 631 633" fill="none" xmlns="http://www.w3.org/2000/svg">
<path fill-rule="evenodd" clip-rule="evenodd" d="M305.652 3.28503C374.207 -12.0413 449.42 28.3565 496.01 80.9306C539.307 129.788 516.988 205.671 539.354 267.002C563.084 332.074 640.646 379.88 629.988 448.319C619.289 517.017 549.006 560.411 488.364 594.417C432.875 625.534 369.252 628.684 305.652 630.198C240.389 631.753 168.074 643.304 116.506 603.273C65.3151 563.534 63.6365 489.7 44.7923 427.695C26.3944 367.158 -18.0763 303.871 7.99378 246.221C34.0448 188.613 119.511 194.128 168.492 154.152C222.468 110.099 237.66 18.4855 305.652 3.28503Z" fill="#44210F" fill-opacity="0.8"/>
</svg>
