<svg width="656" height="629" viewBox="0 0 656 629" fill="none" xmlns="http://www.w3.org/2000/svg">
<path fill-rule="evenodd" clip-rule="evenodd" d="M343.297 2.07698C405.303 5.63061 464.572 22.3372 516.979 55.664C572.259 90.8173 628.217 133.262 647.866 195.756C667.44 258.013 646.259 324.828 620.454 384.77C596.555 440.282 553.252 481.298 507.792 521.123C457.433 565.239 409.52 637.402 343.297 627.567C275.525 617.502 267.82 515.079 210.844 477.023C149.565 436.093 41.3538 469.381 8.04902 403.646C-23.95 340.488 48.0385 273.074 74.1753 207.274C98.1655 146.877 102.845 74.2939 154.523 34.891C206.586 -4.80555 277.934 -1.66912 343.297 2.07698Z" fill="#44210F" fill-opacity="0.8"/>
</svg>
