<svg width="599" height="544" viewBox="0 0 599 544" fill="none" xmlns="http://www.w3.org/2000/svg">
<path fill-rule="evenodd" clip-rule="evenodd" d="M259.702 6.67782C315.55 3.85256 373.592 -10.8033 423.138 15.1228C476.32 42.9509 507.249 97.3783 534.873 150.666C567.61 213.813 608.12 279.332 596.485 349.502C584.134 423.983 539.322 498.31 471.67 531.824C406.596 564.061 332.294 518.398 259.702 516.34C190.214 514.369 109.291 565.028 56.2919 520.044C2.63086 474.498 34.2427 386.236 24.3209 316.554C16.5866 262.236 -10.7812 209.854 4.62667 157.195C20.2657 103.747 59.8909 59.3744 107.853 31.0724C153.112 4.36547 207.217 9.33288 259.702 6.67782Z" fill="#44210F" fill-opacity="0.8"/>
</svg>
