<svg width="587" height="662" viewBox="0 0 587 662" fill="none" xmlns="http://www.w3.org/2000/svg">
<path fill-rule="evenodd" clip-rule="evenodd" d="M333.532 0.538481C403.328 -6.73273 457.791 61.1544 505.815 112.322C546.583 155.76 574.579 209.168 584.474 267.913C593.369 320.723 565.514 369.368 558.042 422.397C548.291 491.59 583.356 575.939 534.086 625.489C485.458 674.393 400.497 664.669 333.532 648.18C275.258 633.831 245.253 572.678 193.846 541.71C134.609 506.024 42.3635 515.952 11.3923 454.119C-19.2656 392.912 18.0224 317.482 51.6734 257.868C81.0035 205.909 141.43 185.922 185.494 145.693C237.812 97.9272 263.07 7.879 333.532 0.538481Z" fill="#44210F" fill-opacity="0.8"/>
</svg>
