<svg width="677" height="631" viewBox="0 0 677 631" fill="none" xmlns="http://www.w3.org/2000/svg">
<path fill-rule="evenodd" clip-rule="evenodd" d="M350.924 0.0167126C407.87 1.19608 432.353 74.9173 481.662 103.429C540.509 137.455 631.884 121.885 664.671 181.432C696.946 240.049 654.371 311.685 630.814 374.316C608.338 434.075 579.575 490.132 532.388 533.14C480.511 580.422 420.382 639.532 350.924 629.414C281.39 619.286 262.536 524.493 204.192 485.333C141.904 443.526 26.0985 467.792 3.53192 396.249C-19.1035 324.487 72.7805 268.464 116.459 207.192C145.801 166.031 178.311 131.401 216.191 97.9306C258.838 60.2472 294.025 -1.16167 350.924 0.0167126Z" fill="#44210F" fill-opacity="0.8"/>
</svg>
