<svg width="586" height="602" viewBox="0 0 586 602" fill="none" xmlns="http://www.w3.org/2000/svg">
<path fill-rule="evenodd" clip-rule="evenodd" d="M328.336 19.4004C384.443 25.923 444.16 20.4237 490.147 53.2219C536.33 86.1601 559.921 141.084 575.45 195.643C590.503 248.529 586.71 302.536 576.485 356.564C564.785 418.391 557.384 485.253 512.331 529.182C464.227 576.086 394.234 611.62 328.336 598.523C264.151 585.765 240.568 507.735 190.776 465.27C146.766 427.736 85.3764 413.804 54.4412 364.929C17.7732 306.998 -11.2689 237.419 4.29371 170.647C20.3119 101.922 72.7245 41.9752 136.67 12.1287C196.058 -15.5907 263.236 11.8322 328.336 19.4004Z" fill="#44210F" fill-opacity="0.8"/>
</svg>
